# Blender v2.91.0 OBJ File: ''
# www.blender.org
mtllib rock2.mtl
o Cube
v 0.723105 0.777499 -0.803694
v 0.744377 -0.906883 -0.858224
v 0.665971 0.665857 0.904672
v 0.738619 -0.961759 0.969713
v -0.590961 0.543974 -0.514783
v -0.673948 -0.858330 -0.862872
v -0.713736 0.685166 0.854983
v -0.831530 -0.922577 0.951492
v 0.838356 -0.225557 -1.080842
v -1.191263 -0.108570 1.190734
v 1.225209 -0.365723 1.151445
v -0.596071 -0.143524 -1.225813
v -0.854530 -0.944075 0.013001
v 0.855549 0.823060 0.081515
v -0.555010 0.969279 -0.113972
v 1.061713 -1.093353 0.063145
v 1.376452 -0.662903 0.320727
v -1.005390 -0.046827 -0.002651
v 0.007515 -0.964224 -0.950669
v -0.111445 0.674782 0.964044
v 0.068305 -1.030085 1.132045
v 0.028251 0.850348 -0.876863
v -0.216714 -0.169509 -1.238631
v -0.245608 -0.440546 1.554743
v 0.017442 -1.034396 0.026996
v 0.007445 0.933461 0.050312
v -0.877492 0.370860 1.046731
v 0.963556 0.404305 -0.977027
v 0.960535 0.309640 1.123132
v -0.514995 0.057381 -1.283192
v 1.152345 0.259599 0.200802
v -0.966217 0.443123 -0.057415
v -0.037057 0.415805 -1.043312
v -0.427375 0.001982 1.456923
v -0.855330 -0.945670 0.521887
v 0.945948 0.860283 0.588916
v 1.379174 -0.741055 0.817900
v -0.757736 0.862038 0.487373
v 0.966075 -1.083087 0.609041
v -1.067049 -0.050852 0.591629
v 0.039370 -1.055506 0.577263
v -0.024323 0.918818 0.578692
v -1.014955 0.458794 0.565818
v 1.192938 0.250675 0.855987
v -0.612454 0.784082 -0.368418
v 0.948062 -1.012448 -0.464902
v -0.924520 -0.104262 -0.609634
v -0.670561 -0.857938 -0.470801
v 0.971869 0.914095 -0.441030
v 1.303077 -0.342170 -0.352427
v 0.006181 0.931322 -0.452042
v 0.009758 -1.023595 -0.494584
v 1.064182 0.347060 -0.422350
v -0.876676 0.300829 -0.529725
v 0.870521 -0.580774 -0.943919
v 1.103302 -0.718242 1.139231
v -0.718108 -0.509004 -0.961398
v -1.176978 -0.570167 1.121422
v -1.002033 -0.527479 0.010272
v 1.188115 -0.804777 0.164673
v -0.039128 -0.808397 1.436840
v -0.008131 -0.558760 -1.055503
v -1.049424 -0.540940 0.559837
v 1.227433 -0.925092 0.719734
v 1.109689 -0.660128 -0.431805
v -0.927493 -0.514341 -0.521950
vt 0.750000 0.687500
vt 0.875000 0.687500
vt 0.875000 0.750000
vt 0.750000 0.750000
vt 0.562500 0.875000
vt 0.625000 0.875000
vt 0.625000 1.000000
vt 0.562500 1.000000
vt 0.562500 0.187500
vt 0.625000 0.187500
vt 0.625000 0.250000
vt 0.562500 0.250000
vt 0.250000 0.687500
vt 0.375000 0.687500
vt 0.375000 0.750000
vt 0.250000 0.750000
vt 0.562500 0.687500
vt 0.625000 0.687500
vt 0.625000 0.750000
vt 0.562500 0.750000
vt 0.562500 0.375000
vt 0.625000 0.375000
vt 0.625000 0.500000
vt 0.562500 0.500000
vt 0.437500 0.375000
vt 0.500000 0.375000
vt 0.500000 0.500000
vt 0.437500 0.500000
vt 0.437500 0.687500
vt 0.500000 0.687500
vt 0.500000 0.750000
vt 0.437500 0.750000
vt 0.437500 0.187500
vt 0.500000 0.187500
vt 0.500000 0.250000
vt 0.437500 0.250000
vt 0.437500 0.875000
vt 0.500000 0.875000
vt 0.500000 1.000000
vt 0.437500 1.000000
vt 0.437500 0.062500
vt 0.500000 0.062500
vt 0.500000 0.125000
vt 0.437500 0.125000
vt 0.437500 0.562500
vt 0.500000 0.562500
vt 0.500000 0.625000
vt 0.437500 0.625000
vt 0.562500 0.562500
vt 0.625000 0.562500
vt 0.625000 0.625000
vt 0.562500 0.625000
vt 0.250000 0.562500
vt 0.375000 0.562500
vt 0.375000 0.625000
vt 0.250000 0.625000
vt 0.562500 0.062500
vt 0.625000 0.062500
vt 0.625000 0.125000
vt 0.562500 0.125000
vt 0.750000 0.562500
vt 0.875000 0.562500
vt 0.875000 0.625000
vt 0.750000 0.625000
vt 0.125000 0.562500
vt 0.125000 0.625000
vt 0.125000 0.687500
vt 0.125000 0.750000
vt 0.500000 0.000000
vt 0.562500 0.000000
vt 0.625000 0.000000
vt 0.437500 0.000000
vt 0.125000 0.500000
vt 0.250000 0.500000
vt 0.750000 0.500000
vt 0.875000 0.500000
vt 0.375000 0.500000
vt 0.375000 0.125000
vt 0.375000 0.187500
vt 0.375000 0.000000
vt 0.375000 0.062500
vt 0.375000 0.250000
vt 0.375000 0.375000
vt 0.375000 0.875000
vt 0.375000 1.000000
vn -0.1024 0.8708 0.4809
vn -0.1601 0.6139 0.7730
vn -0.5172 0.6425 -0.5655
vn 0.0387 -0.9853 0.1663
vn 0.5274 0.5988 0.6028
vn 0.0949 0.4034 -0.9101
vn 0.1144 -0.3609 -0.9256
vn 0.6580 -0.4585 0.5974
vn -0.8901 -0.0615 -0.4515
vn -0.3685 -0.2969 0.8809
vn -0.9953 -0.0197 -0.0952
vn 0.8041 -0.5206 -0.2870
vn 0.9400 0.3327 0.0749
vn -0.0212 -0.9962 -0.0846
vn -0.8140 0.5673 -0.1247
vn -0.0755 0.9693 -0.2341
vn 0.0677 0.9933 0.0938
vn -0.1622 -0.9791 -0.1228
vn 0.2648 -0.1412 0.9539
vn -0.1191 -0.5165 -0.8480
vn -0.4532 0.6324 -0.6283
vn -0.1273 -0.9903 0.0556
vn 0.0710 0.5662 0.8212
vn 0.0476 0.8355 0.5474
vn 0.2202 0.1958 0.9556
vn 0.2193 0.0976 -0.9708
vn -0.9924 0.0833 -0.0908
vn 0.9616 0.2722 -0.0341
vn 0.1128 0.2107 -0.9710
vn 0.8860 0.2373 0.3983
vn -0.8578 0.2001 -0.4735
vn -0.3519 0.2843 0.8918
vn 0.9778 0.2087 -0.0210
vn -0.9329 0.3553 0.0594
vn 0.0931 0.9953 -0.0270
vn -0.1118 -0.9935 -0.0191
vn -0.7508 0.5677 0.3377
vn -0.9771 -0.0102 -0.2127
vn 0.7410 -0.6539 -0.1529
vn 0.9151 0.3871 -0.1125
vn -0.0434 -0.9990 -0.0128
vn -0.0358 0.9944 0.0999
vn -0.9798 0.1001 -0.1732
vn 0.9159 0.0890 -0.3915
vn -0.2004 -0.9775 -0.0666
vn 0.0663 0.9567 -0.2834
vn -0.4473 0.7647 -0.4640
vn 0.0548 -0.9776 -0.2031
vn 0.8598 0.3633 -0.3589
vn 0.8271 -0.2415 -0.5075
vn -0.9908 -0.0156 -0.1346
vn -0.7830 0.5534 -0.2840
vn -0.8446 -0.4678 -0.2606
vn 0.8000 -0.3756 -0.4680
vn 0.7609 -0.6484 -0.0259
vn -0.8226 -0.5616 -0.0896
vn -0.1543 -0.2684 -0.9509
vn 0.2228 -0.7537 0.6184
vn 0.9053 -0.3592 -0.2267
vn -0.9230 -0.3819 -0.0475
vn -0.2758 -0.7324 0.6226
vn -0.8765 -0.4283 -0.2197
vn 0.3088 -0.8190 0.4837
vn 0.1265 -0.2679 -0.9551
usemtl Material
s off
f 42/1/1 38/2/1 7/3/1 20/4/1
f 34/5/2 20/6/2 7/7/2 27/8/2
f 54/9/3 45/10/3 5/11/3 30/12/3
f 41/13/4 39/14/4 4/15/4 21/16/4
f 44/17/5 36/18/5 3/19/5 29/20/5
f 33/21/6 22/22/6 1/23/6 28/24/6
f 62/25/7 23/26/7 9/27/7 55/28/7
f 64/29/8 37/30/8 11/31/8 56/32/8
f 66/33/9 47/34/9 12/35/9 57/36/9
f 61/37/10 24/38/10 10/39/10 58/40/10
f 63/41/11 40/42/11 18/43/11 59/44/11
f 65/45/12 50/46/12 17/47/12 60/48/12
f 53/49/13 49/50/13 14/51/13 31/52/13
f 52/53/14 46/54/14 16/55/14 25/56/14
f 43/57/15 38/58/15 15/59/15 32/60/15
f 51/61/16 45/62/16 15/63/16 26/64/16
f 49/50/17 51/61/17 26/64/17 14/51/17
f 48/65/18 52/53/18 25/56/18 13/66/18
f 56/32/19 11/31/19 24/38/19 61/37/19
f 57/36/20 12/35/20 23/26/20 62/25/20
f 30/12/21 5/11/21 22/22/21 33/21/21
f 35/67/22 41/13/22 21/16/22 8/68/22
f 29/20/23 3/19/23 20/6/23 34/5/23
f 36/18/24 42/1/24 20/4/24 3/19/24
f 11/31/25 29/20/25 34/5/25 24/38/25
f 12/35/26 30/12/26 33/21/26 23/26/26
f 40/42/27 43/57/27 32/60/27 18/43/27
f 50/46/28 53/49/28 31/52/28 17/47/28
f 23/26/29 33/21/29 28/24/29 9/27/29
f 37/30/30 44/17/30 29/20/30 11/31/30
f 47/34/31 54/9/31 30/12/31 12/35/31
f 24/38/32 34/5/32 27/8/32 10/39/32
f 17/47/33 31/52/33 44/17/33 37/30/33
f 10/69/34 27/70/34 43/57/34 40/42/34
f 14/51/35 26/64/35 42/1/35 36/18/35
f 13/66/36 25/56/36 41/13/36 35/67/36
f 27/70/37 7/71/37 38/58/37 43/57/37
f 58/72/38 10/69/38 40/42/38 63/41/38
f 60/48/39 17/47/39 37/30/39 64/29/39
f 31/52/40 14/51/40 36/18/40 44/17/40
f 25/56/41 16/55/41 39/14/41 41/13/41
f 26/64/42 15/63/42 38/2/42 42/1/42
f 18/43/43 32/60/43 54/9/43 47/34/43
f 9/27/44 28/24/44 53/49/44 50/46/44
f 6/73/45 19/74/45 52/53/45 48/65/45
f 1/23/46 22/75/46 51/61/46 49/50/46
f 22/75/47 5/76/47 45/62/47 51/61/47
f 19/74/48 2/77/48 46/54/48 52/53/48
f 28/24/49 1/23/49 49/50/49 53/49/49
f 55/28/50 9/27/50 50/46/50 65/45/50
f 59/44/51 18/43/51 47/34/51 66/33/51
f 32/60/52 15/59/52 45/10/52 54/9/52
f 13/78/53 59/44/53 66/33/53 48/79/53
f 2/77/54 55/28/54 65/45/54 46/54/54
f 16/55/55 60/48/55 64/29/55 39/14/55
f 8/80/56 58/72/56 63/41/56 35/81/56
f 6/82/57 57/36/57 62/25/57 19/83/57
f 4/15/58 56/32/58 61/37/58 21/84/58
f 46/54/59 65/45/59 60/48/59 16/55/59
f 35/81/60 63/41/60 59/44/60 13/78/60
f 21/84/61 61/37/61 58/40/61 8/85/61
f 48/79/62 66/33/62 57/36/62 6/82/62
f 39/14/63 64/29/63 56/32/63 4/15/63
f 19/83/64 62/25/64 55/28/64 2/77/64
