# Blender v2.91.0 OBJ File: ''
# www.blender.org
mtllib rock.mtl
o Cube
v 0.711593 0.810803 -0.811888
v 0.732077 -0.870103 -0.864657
v 0.664239 0.752670 0.801915
v 0.710494 -0.835193 0.848000
v -0.751713 0.865029 -0.866227
v -0.682300 -0.841150 -0.841150
v -0.659277 0.713584 0.762146
v -0.793100 -0.880014 0.878922
v 0.979881 -0.020588 -0.979525
v -1.007867 -0.019892 1.010697
v 1.002578 -0.020647 1.015047
v -0.732588 -0.003056 -0.861208
v -0.856024 -0.928316 0.002602
v 0.819827 0.880136 0.032027
v -1.007867 0.980108 0.010697
v 1.000000 -1.000000 0.000000
v 0.991229 -0.020618 0.017761
v -1.019778 -0.007766 -0.003443
v 0.003351 -0.944876 -0.945059
v -0.012233 0.757243 0.814003
v -0.000236 -0.912551 0.911890
v 0.013321 0.896819 -0.897562
v -0.158660 -0.016392 -1.062116
v 0.004397 0.004768 1.039072
v 0.000000 -1.000000 0.000000
v -0.012704 0.969436 0.023109
v -0.672442 0.391861 0.805865
v 0.969821 0.469118 -0.969288
v 0.888539 0.455040 0.959377
v -0.760837 0.469309 -0.873028
v 0.986844 0.469074 0.026642
v -1.086118 0.494082 -0.035906
v -0.045814 0.497327 -1.008192
v -0.023965 0.398485 0.944897
v -0.844270 -0.920770 0.484857
v 0.914128 0.918036 0.519663
v 0.996904 -0.020633 0.516404
v -0.840751 0.876628 0.484041
v 0.885728 -0.943737 0.498331
v -1.005900 -0.014919 0.508023
v 0.000000 -1.000000 0.500000
v -0.008997 0.964448 0.524427
v -1.008850 0.477621 0.512034
v 0.995355 0.469051 0.524606
v -0.885594 0.928630 -0.479796
v 0.914154 -0.958287 -0.490245
v -0.985125 -0.005252 -0.488560
v -0.678291 -0.839633 -0.460862
v 0.951117 0.948723 -0.460073
v 0.985555 -0.020603 -0.480882
v -0.016412 0.974424 -0.478208
v 0.000000 -1.000000 -0.500000
v 0.978332 0.469096 -0.471323
v -0.988522 0.490921 -0.488088
v 0.876516 -0.498139 -0.933094
v 1.001289 -0.510324 1.007524
v -0.747981 -0.470946 -0.872173
v -1.003933 -0.509946 1.005348
v -1.001967 -0.504973 0.002674
v 0.995615 -0.510309 0.008881
v -0.004256 -0.558635 1.033129
v -0.002653 -0.513487 -1.021517
v -1.002950 -0.507460 0.504011
v 0.998452 -0.510316 0.508202
v 0.992777 -0.510301 -0.490441
v -0.946430 -0.485015 -0.482430
vt 0.750000 0.687500
vt 0.875000 0.687500
vt 0.875000 0.750000
vt 0.750000 0.750000
vt 0.562500 0.875000
vt 0.625000 0.875000
vt 0.625000 1.000000
vt 0.562500 1.000000
vt 0.562500 0.187500
vt 0.625000 0.187500
vt 0.625000 0.250000
vt 0.562500 0.250000
vt 0.250000 0.687500
vt 0.375000 0.687500
vt 0.375000 0.750000
vt 0.250000 0.750000
vt 0.562500 0.687500
vt 0.625000 0.687500
vt 0.625000 0.750000
vt 0.562500 0.750000
vt 0.562500 0.375000
vt 0.625000 0.375000
vt 0.625000 0.500000
vt 0.562500 0.500000
vt 0.437500 0.375000
vt 0.500000 0.375000
vt 0.500000 0.500000
vt 0.437500 0.500000
vt 0.437500 0.687500
vt 0.500000 0.687500
vt 0.500000 0.750000
vt 0.437500 0.750000
vt 0.437500 0.187500
vt 0.500000 0.187500
vt 0.500000 0.250000
vt 0.437500 0.250000
vt 0.437500 0.875000
vt 0.500000 0.875000
vt 0.500000 1.000000
vt 0.437500 1.000000
vt 0.437500 0.062500
vt 0.500000 0.062500
vt 0.500000 0.125000
vt 0.437500 0.125000
vt 0.437500 0.562500
vt 0.500000 0.562500
vt 0.500000 0.625000
vt 0.437500 0.625000
vt 0.562500 0.562500
vt 0.625000 0.562500
vt 0.625000 0.625000
vt 0.562500 0.625000
vt 0.250000 0.562500
vt 0.375000 0.562500
vt 0.375000 0.625000
vt 0.250000 0.625000
vt 0.562500 0.062500
vt 0.625000 0.062500
vt 0.625000 0.125000
vt 0.562500 0.125000
vt 0.750000 0.562500
vt 0.875000 0.562500
vt 0.875000 0.625000
vt 0.750000 0.625000
vt 0.125000 0.562500
vt 0.125000 0.625000
vt 0.125000 0.687500
vt 0.125000 0.750000
vt 0.500000 0.000000
vt 0.562500 0.000000
vt 0.625000 0.000000
vt 0.437500 0.000000
vt 0.125000 0.500000
vt 0.250000 0.500000
vt 0.750000 0.500000
vt 0.875000 0.500000
vt 0.375000 0.500000
vt 0.375000 0.125000
vt 0.375000 0.187500
vt 0.375000 0.000000
vt 0.375000 0.062500
vt 0.375000 0.250000
vt 0.375000 0.375000
vt 0.375000 0.875000
vt 0.375000 1.000000
vn -0.1080 0.8168 0.5667
vn -0.1506 0.2509 0.9562
vn -0.8925 0.1278 -0.4325
vn 0.0913 -0.9591 0.2679
vn 0.7665 0.4195 0.4863
vn 0.0915 0.3603 -0.9283
vn 0.0846 -0.0841 -0.9929
vn 1.0000 0.0004 -0.0085
vn -0.8604 -0.0186 -0.5093
vn -0.0280 -0.0106 0.9996
vn -0.9997 -0.0209 0.0125
vn 0.9999 0.0120 -0.0085
vn 0.9687 0.2087 0.1346
vn 0.0220 -0.9988 -0.0440
vn -0.9333 0.2545 0.2532
vn -0.0184 0.9986 -0.0490
vn 0.0623 0.9947 0.0817
vn -0.1516 -0.9813 -0.1183
vn 0.0249 -0.0130 0.9996
vn -0.2587 -0.0673 -0.9636
vn -0.1166 0.1549 -0.9810
vn -0.0719 -0.9843 0.1611
vn -0.0144 0.3982 0.9172
vn 0.0323 0.8308 0.5556
vn 0.0021 0.1702 0.9854
vn -0.2525 0.0629 -0.9656
vn -0.9942 -0.0669 0.0840
vn 0.9998 0.0121 -0.0142
vn 0.0571 0.0579 -0.9967
vn 0.9864 0.1234 0.1087
vn -0.8445 -0.0339 -0.5345
vn -0.0999 0.3795 0.9198
vn 0.9999 0.0063 -0.0142
vn -0.8310 0.3930 0.3937
vn 0.0771 0.9962 -0.0408
vn -0.0885 -0.9960 0.0087
vn -0.6663 0.2379 0.7068
vn -1.0000 -0.0070 -0.0030
vn 0.9999 0.0062 -0.0085
vn 0.9549 0.2757 -0.1102
vn 0.0298 -0.9978 0.0596
vn -0.0453 0.9919 0.1183
vn -0.9875 -0.0735 -0.1393
vn 0.9997 0.0179 -0.0142
vn -0.1961 -0.9785 -0.0634
vn 0.0820 0.9538 -0.2889
vn -0.0499 0.9820 -0.1822
vn 0.0797 -0.9788 -0.1886
vn 0.8745 0.3686 -0.3151
vn 0.9863 -0.1030 -0.1291
vn -0.9939 -0.0587 -0.0937
vn -0.9515 0.2005 -0.2335
vn -0.8490 -0.4591 -0.2614
vn 0.8924 -0.2729 -0.3594
vn 0.9861 -0.1181 0.1168
vn -0.8973 -0.4360 0.0689
vn -0.1869 -0.1470 -0.9713
vn 0.0774 -0.4088 0.9093
vn 0.9927 -0.0777 -0.0922
vn -0.9395 -0.3423 0.0120
vn -0.0471 -0.3358 0.9408
vn -0.8779 -0.4209 -0.2285
vn 0.8359 -0.4969 0.2333
vn 0.1132 -0.1952 -0.9742
usemtl Material
s off
f 42/1/1 38/2/1 7/3/1 20/4/1
f 34/5/2 20/6/2 7/7/2 27/8/2
f 54/9/3 45/10/3 5/11/3 30/12/3
f 41/13/4 39/14/4 4/15/4 21/16/4
f 44/17/5 36/18/5 3/19/5 29/20/5
f 33/21/6 22/22/6 1/23/6 28/24/6
f 62/25/7 23/26/7 9/27/7 55/28/7
f 64/29/8 37/30/8 11/31/8 56/32/8
f 66/33/9 47/34/9 12/35/9 57/36/9
f 61/37/10 24/38/10 10/39/10 58/40/10
f 63/41/11 40/42/11 18/43/11 59/44/11
f 65/45/12 50/46/12 17/47/12 60/48/12
f 53/49/13 49/50/13 14/51/13 31/52/13
f 52/53/14 46/54/14 16/55/14 25/56/14
f 43/57/15 38/58/15 15/59/15 32/60/15
f 51/61/16 45/62/16 15/63/16 26/64/16
f 49/50/17 51/61/17 26/64/17 14/51/17
f 48/65/18 52/53/18 25/56/18 13/66/18
f 56/32/19 11/31/19 24/38/19 61/37/19
f 57/36/20 12/35/20 23/26/20 62/25/20
f 30/12/21 5/11/21 22/22/21 33/21/21
f 35/67/22 41/13/22 21/16/22 8/68/22
f 29/20/23 3/19/23 20/6/23 34/5/23
f 36/18/24 42/1/24 20/4/24 3/19/24
f 11/31/25 29/20/25 34/5/25 24/38/25
f 12/35/26 30/12/26 33/21/26 23/26/26
f 40/42/27 43/57/27 32/60/27 18/43/27
f 50/46/28 53/49/28 31/52/28 17/47/28
f 23/26/29 33/21/29 28/24/29 9/27/29
f 37/30/30 44/17/30 29/20/30 11/31/30
f 47/34/31 54/9/31 30/12/31 12/35/31
f 24/38/32 34/5/32 27/8/32 10/39/32
f 17/47/33 31/52/33 44/17/33 37/30/33
f 10/69/34 27/70/34 43/57/34 40/42/34
f 14/51/35 26/64/35 42/1/35 36/18/35
f 13/66/36 25/56/36 41/13/36 35/67/36
f 27/70/37 7/71/37 38/58/37 43/57/37
f 58/72/38 10/69/38 40/42/38 63/41/38
f 60/48/39 17/47/39 37/30/39 64/29/39
f 31/52/40 14/51/40 36/18/40 44/17/40
f 25/56/41 16/55/41 39/14/41 41/13/41
f 26/64/42 15/63/42 38/2/42 42/1/42
f 18/43/43 32/60/43 54/9/43 47/34/43
f 9/27/44 28/24/44 53/49/44 50/46/44
f 6/73/45 19/74/45 52/53/45 48/65/45
f 1/23/46 22/75/46 51/61/46 49/50/46
f 22/75/47 5/76/47 45/62/47 51/61/47
f 19/74/48 2/77/48 46/54/48 52/53/48
f 28/24/49 1/23/49 49/50/49 53/49/49
f 55/28/50 9/27/50 50/46/50 65/45/50
f 59/44/51 18/43/51 47/34/51 66/33/51
f 32/60/52 15/59/52 45/10/52 54/9/52
f 13/78/53 59/44/53 66/33/53 48/79/53
f 2/77/54 55/28/54 65/45/54 46/54/54
f 16/55/55 60/48/55 64/29/55 39/14/55
f 8/80/56 58/72/56 63/41/56 35/81/56
f 6/82/57 57/36/57 62/25/57 19/83/57
f 4/15/58 56/32/58 61/37/58 21/84/58
f 46/54/59 65/45/59 60/48/59 16/55/59
f 35/81/60 63/41/60 59/44/60 13/78/60
f 21/84/61 61/37/61 58/40/61 8/85/61
f 48/79/62 66/33/62 57/36/62 6/82/62
f 39/14/63 64/29/63 56/32/63 4/15/63
f 19/83/64 62/25/64 55/28/64 2/77/64
