# Blender v2.91.0 OBJ File: 'rock.blend'
# www.blender.org
mtllib rock3.mtl
o Cube
v 0.708032 0.775831 -0.811137
v 0.672140 -0.962895 -0.913673
v 0.651500 0.665554 0.897021
v 0.731745 -0.962438 0.965546
v -0.747429 0.469620 -1.062917
v -0.871817 -0.888871 -0.878159
v -0.906649 0.683835 0.764358
v -0.890104 -0.924401 0.898419
v 0.531756 -0.274274 -1.675814
v -1.260863 -0.115057 1.156754
v 1.221047 -0.366075 1.149181
v -0.721364 -0.223671 -1.230750
v -1.222024 -0.828226 -0.289756
v 0.840856 0.822886 0.073291
v -0.989370 1.059551 -0.441726
v 1.055934 -1.094236 0.060060
v 1.372067 -0.663463 0.318413
v -1.758280 -0.377412 0.223190
v -0.040162 -0.978992 -0.967532
v -0.170131 0.674420 0.934495
v 0.054419 -1.031124 1.122247
v 0.033864 0.950680 -0.851739
v -0.296212 -0.201848 -1.246979
v -0.262581 -0.441736 1.544732
v -0.020884 -1.038834 0.001097
v -0.093684 0.940932 -0.011951
v -1.012615 0.365138 0.986208
v 0.954465 0.403081 -0.981569
v 0.953159 0.309272 1.119233
v -0.590820 0.007677 -1.289999
v 1.571941 0.266483 -0.052824
v -1.520956 0.521160 -0.479573
v -0.297923 0.417297 -1.218423
v -0.458514 0.000221 1.440752
v -1.015798 -0.935771 0.354647
v 0.935742 0.860131 0.583371
v 1.375690 -0.741429 0.815993
v -1.142172 0.875376 0.289698
v 0.960415 -1.083754 0.605743
v -1.560586 -0.511384 0.546880
v 0.013459 -1.057537 0.557679
v -0.098666 0.921028 0.538366
v -1.567176 0.438166 0.340173
v 1.186788 0.250305 0.852726
v -1.087777 0.878775 -0.741750
v 0.965916 -1.024729 -0.524586
v -1.616227 -0.515089 -0.696670
v -0.907205 -0.843772 -0.572589
v 0.961291 0.913849 -0.447044
v 1.523325 -0.382342 -0.958333
v -0.080400 0.939231 -0.510351
v -0.030307 -1.032191 -0.512029
v 1.163199 0.117020 -0.675695
v -1.362424 0.082616 -0.648547
v 0.583782 -0.818730 -1.181254
v 1.099048 -0.718643 1.136834
v -1.054574 -0.637928 -0.956894
v -1.236081 -0.575240 1.080833
v -1.818366 -0.587147 -0.366971
v 1.182478 -0.805584 0.161695
v -0.051824 -0.809341 1.428554
v -0.383900 -0.674642 -1.344921
v -1.305303 -0.557160 0.363234
v 1.223338 -0.925559 0.717445
v 1.346852 -0.766108 -0.981081
v -1.526944 -0.492893 -0.694010
vt 0.750000 0.687500
vt 0.875000 0.687500
vt 0.875000 0.750000
vt 0.750000 0.750000
vt 0.562500 0.875000
vt 0.625000 0.875000
vt 0.625000 1.000000
vt 0.562500 1.000000
vt 0.562500 0.187500
vt 0.625000 0.187500
vt 0.625000 0.250000
vt 0.562500 0.250000
vt 0.250000 0.687500
vt 0.375000 0.687500
vt 0.375000 0.750000
vt 0.250000 0.750000
vt 0.562500 0.687500
vt 0.625000 0.687500
vt 0.625000 0.750000
vt 0.562500 0.750000
vt 0.562500 0.375000
vt 0.625000 0.375000
vt 0.625000 0.500000
vt 0.562500 0.500000
vt 0.437500 0.375000
vt 0.500000 0.375000
vt 0.500000 0.500000
vt 0.437500 0.500000
vt 0.437500 0.687500
vt 0.500000 0.687500
vt 0.500000 0.750000
vt 0.437500 0.750000
vt 0.437500 0.187500
vt 0.500000 0.187500
vt 0.500000 0.250000
vt 0.437500 0.250000
vt 0.437500 0.875000
vt 0.500000 0.875000
vt 0.500000 1.000000
vt 0.437500 1.000000
vt 0.437500 0.062500
vt 0.500000 0.062500
vt 0.500000 0.125000
vt 0.437500 0.125000
vt 0.437500 0.562500
vt 0.500000 0.562500
vt 0.500000 0.625000
vt 0.437500 0.625000
vt 0.562500 0.562500
vt 0.625000 0.562500
vt 0.625000 0.625000
vt 0.562500 0.625000
vt 0.250000 0.562500
vt 0.375000 0.562500
vt 0.375000 0.625000
vt 0.250000 0.625000
vt 0.562500 0.062500
vt 0.625000 0.062500
vt 0.625000 0.125000
vt 0.562500 0.125000
vt 0.750000 0.562500
vt 0.875000 0.562500
vt 0.875000 0.625000
vt 0.750000 0.625000
vt 0.125000 0.562500
vt 0.125000 0.625000
vt 0.125000 0.687500
vt 0.125000 0.750000
vt 0.500000 0.000000
vt 0.562500 0.000000
vt 0.625000 0.000000
vt 0.437500 0.000000
vt 0.125000 0.500000
vt 0.250000 0.500000
vt 0.750000 0.500000
vt 0.875000 0.500000
vt 0.375000 0.500000
vt 0.375000 0.125000
vt 0.375000 0.187500
vt 0.375000 0.000000
vt 0.375000 0.062500
vt 0.375000 0.250000
vt 0.375000 0.375000
vt 0.375000 0.875000
vt 0.375000 1.000000
vn -0.1272 0.8762 0.4648
vn -0.1840 0.6277 0.7564
vn -0.6124 0.1402 -0.7780
vn 0.0368 -0.9856 0.1650
vn 0.5189 0.6044 0.6045
vn 0.1712 0.4904 -0.8545
vn -0.1781 -0.3520 -0.9189
vn 0.6564 -0.4592 0.5986
vn -0.4545 -0.3069 -0.8362
vn -0.3742 -0.3093 0.8742
vn -0.4123 -0.8910 0.1902
vn 0.8156 -0.5779 0.0298
vn 0.7735 0.5924 -0.2254
vn -0.0216 -0.9975 -0.0672
vn -0.7135 0.7000 0.0290
vn 0.1103 0.9663 -0.2326
vn 0.0649 0.9933 0.0956
vn -0.1789 -0.9822 -0.0576
vn 0.2582 -0.1388 0.9561
vn -0.3463 -0.0217 -0.9379
vn -0.2221 0.5281 -0.8197
vn -0.1261 -0.9906 0.0527
vn 0.0535 0.5769 0.8151
vn 0.0295 0.8422 0.5383
vn 0.2101 0.2019 0.9566
vn 0.1079 -0.0522 -0.9928
vn -0.9651 0.2023 0.1662
vn 0.9866 0.1028 -0.1266
vn -0.0589 0.5006 -0.8637
vn 0.8850 0.2409 0.3985
vn -0.5791 0.2581 -0.7734
vn -0.3560 0.2851 0.8899
vn 0.9635 0.0406 0.2647
vn -0.8271 0.2699 0.4931
vn 0.0921 0.9955 -0.0241
vn -0.1301 -0.9884 -0.0779
vn -0.5775 0.6037 0.5496
vn -0.7207 -0.5876 0.3677
vn 0.7399 -0.6548 -0.1543
vn 0.7482 0.6477 0.1438
vn -0.0398 -0.9992 -0.0097
vn -0.0171 0.9877 0.1552
vn -0.9278 0.1563 -0.3388
vn 0.6588 0.4595 -0.5957
vn -0.1611 -0.9868 -0.0159
vn 0.1255 0.9719 -0.1991
vn -0.1078 0.8180 -0.5650
vn 0.0171 -0.9899 -0.1410
vn 0.7791 0.4482 -0.4382
vn 0.4008 -0.4573 -0.7939
vn -0.6674 0.6992 -0.2564
vn -0.6912 0.3924 -0.6068
vn -0.3340 -0.8337 -0.4396
vn 0.2184 -0.8876 -0.4055
vn 0.7599 -0.6495 -0.0269
vn -0.7342 -0.6700 0.1099
vn -0.2577 -0.7474 -0.6124
vn 0.2174 -0.7557 0.6178
vn 0.7294 -0.6840 -0.0118
vn -0.5677 -0.7835 0.2528
vn -0.2819 -0.7430 0.6071
vn -0.5492 -0.8059 -0.2210
vn 0.3057 -0.8200 0.4839
vn 0.0124 -0.8170 -0.5765
usemtl Material
s off
f 42/1/1 38/2/1 7/3/1 20/4/1
f 34/5/2 20/6/2 7/7/2 27/8/2
f 54/9/3 45/10/3 5/11/3 30/12/3
f 41/13/4 39/14/4 4/15/4 21/16/4
f 44/17/5 36/18/5 3/19/5 29/20/5
f 33/21/6 22/22/6 1/23/6 28/24/6
f 62/25/7 23/26/7 9/27/7 55/28/7
f 64/29/8 37/30/8 11/31/8 56/32/8
f 66/33/9 47/34/9 12/35/9 57/36/9
f 61/37/10 24/38/10 10/39/10 58/40/10
f 63/41/11 40/42/11 18/43/11 59/44/11
f 65/45/12 50/46/12 17/47/12 60/48/12
f 53/49/13 49/50/13 14/51/13 31/52/13
f 52/53/14 46/54/14 16/55/14 25/56/14
f 43/57/15 38/58/15 15/59/15 32/60/15
f 51/61/16 45/62/16 15/63/16 26/64/16
f 49/50/17 51/61/17 26/64/17 14/51/17
f 48/65/18 52/53/18 25/56/18 13/66/18
f 56/32/19 11/31/19 24/38/19 61/37/19
f 57/36/20 12/35/20 23/26/20 62/25/20
f 30/12/21 5/11/21 22/22/21 33/21/21
f 35/67/22 41/13/22 21/16/22 8/68/22
f 29/20/23 3/19/23 20/6/23 34/5/23
f 36/18/24 42/1/24 20/4/24 3/19/24
f 11/31/25 29/20/25 34/5/25 24/38/25
f 12/35/26 30/12/26 33/21/26 23/26/26
f 40/42/27 43/57/27 32/60/27 18/43/27
f 50/46/28 53/49/28 31/52/28 17/47/28
f 23/26/29 33/21/29 28/24/29 9/27/29
f 37/30/30 44/17/30 29/20/30 11/31/30
f 47/34/31 54/9/31 30/12/31 12/35/31
f 24/38/32 34/5/32 27/8/32 10/39/32
f 17/47/33 31/52/33 44/17/33 37/30/33
f 10/69/34 27/70/34 43/57/34 40/42/34
f 14/51/35 26/64/35 42/1/35 36/18/35
f 13/66/36 25/56/36 41/13/36 35/67/36
f 27/70/37 7/71/37 38/58/37 43/57/37
f 58/72/38 10/69/38 40/42/38 63/41/38
f 60/48/39 17/47/39 37/30/39 64/29/39
f 31/52/40 14/51/40 36/18/40 44/17/40
f 25/56/41 16/55/41 39/14/41 41/13/41
f 26/64/42 15/63/42 38/2/42 42/1/42
f 18/43/43 32/60/43 54/9/43 47/34/43
f 9/27/44 28/24/44 53/49/44 50/46/44
f 6/73/45 19/74/45 52/53/45 48/65/45
f 1/23/46 22/75/46 51/61/46 49/50/46
f 22/75/47 5/76/47 45/62/47 51/61/47
f 19/74/48 2/77/48 46/54/48 52/53/48
f 28/24/49 1/23/49 49/50/49 53/49/49
f 55/28/50 9/27/50 50/46/50 65/45/50
f 59/44/51 18/43/51 47/34/51 66/33/51
f 32/60/52 15/59/52 45/10/52 54/9/52
f 13/78/53 59/44/53 66/33/53 48/79/53
f 2/77/54 55/28/54 65/45/54 46/54/54
f 16/55/55 60/48/55 64/29/55 39/14/55
f 8/80/56 58/72/56 63/41/56 35/81/56
f 6/82/57 57/36/57 62/25/57 19/83/57
f 4/15/58 56/32/58 61/37/58 21/84/58
f 46/54/59 65/45/59 60/48/59 16/55/59
f 35/81/60 63/41/60 59/44/60 13/78/60
f 21/84/61 61/37/61 58/40/61 8/85/61
f 48/79/62 66/33/62 57/36/62 6/82/62
f 39/14/63 64/29/63 56/32/63 4/15/63
f 19/83/64 62/25/64 55/28/64 2/77/64
